<svg width="36" height="36" viewBox="0 0 36 36" fill="none" xmlns="http://www.w3.org/2000/svg">
<path d="M18 36C27.9411 36 36 27.9411 36 18C36 8.05887 27.9411 0 18 0C8.05887 0 0 8.05887 0 18C0 27.9411 8.05887 36 18 36Z" fill="#E6E6E6"/>
<path d="M22.26 10H13.74C11.6744 10 10 11.6745 10 13.74V22.26C10 24.3255 11.6744 26 13.74 26H22.26C24.3255 26 26 24.3255 26 22.26V13.74C26 11.6745 24.3255 10 22.26 10Z" fill="black"/>
<path d="M18 21.5C19.933 21.5 21.5 19.933 21.5 18C21.5 16.067 19.933 14.5 18 14.5C16.067 14.5 14.5 16.067 14.5 18C14.5 19.933 16.067 21.5 18 21.5Z" stroke="white" stroke-miterlimit="10"/>
<path d="M22.5 14.5C23.0523 14.5 23.5 14.0523 23.5 13.5C23.5 12.9477 23.0523 12.5 22.5 12.5C21.9477 12.5 21.5 12.9477 21.5 13.5C21.5 14.0523 21.9477 14.5 22.5 14.5Z" fill="white"/>
</svg>
