<svg width="36" height="37" viewBox="0 0 36 37" fill="none" xmlns="http://www.w3.org/2000/svg">
<path d="M18 36.1289C27.9411 36.1289 36 28.07 36 18.1289C36 8.18778 27.9411 0.128906 18 0.128906C8.05887 0.128906 0 8.18778 0 18.1289C0 28.07 8.05887 36.1289 18 36.1289Z" fill="#E6E6E6"/>
<path d="M14.11 26.6293H9.81999V15.4893H14.11V26.6293ZM11.96 13.7693H11.93C10.63 13.7693 9.79999 12.7593 9.79999 11.6393C9.79999 10.5193 10.66 9.56934 11.98 9.56934C13.3 9.56934 14.11 10.5293 14.14 11.6693C14.14 12.7793 13.3 13.7693 11.96 13.7693V13.7693ZM21.83 18.9093C20.88 18.9093 20.12 19.6793 20.12 20.6193V26.6193H15.83C15.83 26.6193 15.88 16.3293 15.83 15.4793H20.12V16.7493C20.12 16.7493 21.45 15.5093 23.5 15.5093C26.04 15.5093 27.84 17.3493 27.84 20.9093V26.6093H23.55V20.6093C23.55 19.6593 22.78 18.8993 21.84 18.8993L21.83 18.9093Z" fill="black"/>
</svg>
