<svg width="37" height="37" viewBox="0 0 37 37" fill="none" xmlns="http://www.w3.org/2000/svg">
<path d="M18.5996 36.1289C28.5407 36.1289 36.5996 28.07 36.5996 18.1289C36.5996 8.18778 28.5407 0.128906 18.5996 0.128906C8.65848 0.128906 0.599609 8.18778 0.599609 18.1289C0.599609 28.07 8.65848 36.1289 18.5996 36.1289Z" fill="#E6E6E6"/>
<path d="M29.7396 13.0587C28.9996 13.3887 28.3696 13.3987 27.7096 13.0687C28.5596 12.5587 28.5996 12.1987 28.9096 11.2287C28.1096 11.6987 27.2196 12.0487 26.2796 12.2387C25.5296 11.4387 24.4496 10.9287 23.2596 10.9287C20.9696 10.9287 19.1196 12.7787 19.1196 15.0687C19.1196 15.3887 19.1596 15.7087 19.2296 16.0087C15.7896 15.8387 12.7396 14.1887 10.6996 11.6787C10.3396 12.2887 10.1396 12.9987 10.1396 13.7587C10.1396 15.1987 10.8696 16.4587 11.9796 17.1987C11.2996 17.1787 10.6596 16.9887 10.1096 16.6787C10.1096 16.6987 10.1096 16.7087 10.1096 16.7287C10.1096 18.7387 11.5396 20.4087 13.4296 20.7887C12.8196 20.9587 12.1796 20.9787 11.5596 20.8587C12.0896 22.4987 13.6196 23.6987 15.4296 23.7287C13.6596 25.1187 11.4596 25.6987 9.29962 25.4387C11.1296 26.6087 13.3096 27.2987 15.6496 27.2987C23.2596 27.2987 27.4296 20.9887 27.4296 15.5187C27.4296 15.3387 27.4296 15.1587 27.4196 14.9787C28.2296 14.3987 29.1996 13.8487 29.7496 13.0187L29.7396 13.0587Z" fill="black"/>
</svg>
